<?xml version="1.0" standalone="no"?>
<!DOCTYPE svg PUBLIC "-//W3C//DTD SVG 20010904//EN"
 "http://www.w3.org/TR/2001/REC-SVG-20010904/DTD/svg10.dtd">
<svg version="1.0" xmlns="http://www.w3.org/2000/svg"
 width="128.000000pt" height="128.000000pt" viewBox="0 0 128.000000 128.000000"
 preserveAspectRatio="xMidYMid meet">
<metadata>
Created by potrace 1.14, written by Peter Selinger 2001-2017
</metadata>
<g transform="translate(0.000000,128.000000) scale(0.100000,-0.100000)"
fill="#000000" stroke="none">
<path d="M640 1266 c0 -20 23 -26 91 -26 l59 0 0 -229 c0 -126 3 -236 6 -245
5 -14 32 -16 190 -16 l184 0 0 -55 0 -55 -184 0 c-158 0 -185 -2 -190 -16 -3
-9 -6 -144 -6 -300 l0 -284 -55 0 -55 0 0 496 0 495 -24 -3 c-18 -2 -85 -79
-260 -295 -131 -161 -239 -293 -241 -293 -2 0 -20 10 -40 22 -31 17 -38 19
-46 7 -13 -21 -8 -27 48 -59 l51 -30 234 289 233 289 3 -479 2 -479 95 0 95 0
0 300 0 300 195 0 196 0 -3 98 -3 97 -192 3 -193 2 0 240 0 240 -95 0 c-75 0
-95 -3 -95 -14z"/>
</g>
</svg>
